<?xml version="1.0" standalone="no"?>
<!DOCTYPE svg PUBLIC "-//W3C//DTD SVG 20010904//EN"
 "http://www.w3.org/TR/2001/REC-SVG-20010904/DTD/svg10.dtd">
<svg version="1.0" xmlns="http://www.w3.org/2000/svg"
 width="128.000000pt" height="128.000000pt" viewBox="0 0 128.000000 128.000000"
 preserveAspectRatio="xMidYMid meet">
<metadata>
Created by potrace 1.11, written by Peter Selinger 2001-2013
</metadata>
<g transform="translate(0.000000,128.000000) scale(0.100000,-0.100000)"
fill="#000000" stroke="none">
<path d="M673 1095 c-16 -7 -33 -20 -36 -29 -5 -14 -42 -229 -73 -421 -2 -16
-6 -41 -9 -55 -3 -14 -7 -41 -10 -60 -3 -19 -8 -51 -12 -70 -3 -19 -7 -42 -8
-50 -1 -8 -8 -47 -15 -87 -16 -90 -4 -129 44 -142 34 -9 82 11 90 39 5 16 23
120 42 235 2 17 6 41 9 55 3 14 7 39 9 55 4 26 27 173 41 260 3 17 7 39 9 50
28 147 29 167 9 193 -25 34 -53 42 -90 27z"/>
<path d="M826 1009 c-18 -14 -26 -30 -26 -52 0 -27 19 -51 142 -174 l142 -143
-142 -144 c-132 -133 -143 -147 -140 -177 4 -40 45 -74 78 -64 12 4 100 85
196 181 146 146 174 179 174 203 0 25 -28 58 -172 204 -104 104 -184 176 -199
180 -19 5 -34 1 -53 -14z"/>
<path d="M215 840 c-94 -93 -174 -178 -179 -189 -5 -11 -6 -30 -3 -43 4 -13
84 -101 180 -195 138 -138 179 -173 200 -173 36 0 67 33 67 70 0 25 -22 52
-140 170 -77 77 -140 143 -140 146 0 4 63 70 140 147 121 121 140 145 140 172
0 39 -26 65 -66 65 -25 0 -56 -27 -199 -170z"/>
</g>
</svg>
